<?xml version="1.0" encoding="UTF-8"?>
<svg id="Layer_1" xmlns="http://www.w3.org/2000/svg" xmlns:xlink="http://www.w3.org/1999/xlink" version="1.1" viewBox="0 0 984 200">
  <!-- Generator: Adobe Illustrator 29.8.2, SVG Export Plug-In . SVG Version: 2.1.1 Build 3)  -->
  <defs>
    <style>
      .st0 {
        fill: none;
      }

      .st1 {
        fill: #ff7f7a;
      }

      .st2 {
        fill: #3ae668;
      }

      .st3 {
        fill: #ff9284;
      }

      .st4 {
        clip-path: url(#clippath-1);
      }

      .st5 {
        clip-path: url(#clippath-2);
      }

      .st6 {
        fill: #5b58d1;
      }

      .st7 {
        fill: #fff;
      }

      .st8 {
        fill: #00ea55;
      }

      .st9 {
        fill: #c75467;
      }

      .st10 {
        fill: #24af69;
      }

      .st11 {
        clip-path: url(#clippath);
      }

      .st12 {
        fill: #7774f1;
      }
    </style>
    <clipPath id="clippath">
      <path class="st0" d="M34.4,3.1S2.4,22,1.3,27.5c-1.1,5.5,21.7,56.6,27.6,58,5.9,1.4,52.4-24.2,54.2-26.6s-5.9-35.5-9.7-37.5c-3.9-2-33.7-17.5-39-18.3h0Z"/>
    </clipPath>
    <clipPath id="clippath-1">
      <path class="st0" d="M21.1,84.3c-3.3.4-7.1,9.2-7.3,12.2s3.9,26.8,6.9,29.2,17.5,6.9,20.6,6.1c3.1-.8,28.8-20.9,26.6-26.6-2.1-5.4-10.5-10.9-16.2-13.3-4-1.7-23.9-8.6-30.6-7.7Z"/>
    </clipPath>
    <clipPath id="clippath-2">
      <path class="st0" d="M51.3,136.6c8.9,7.6,6.2,12.3,3.4,17-2.8,4.7-14.1,20.5-22.5,17.2-6.6-2.6-12.7-13-12.6-19.5,0-4.2,11.6-20.6,19.5-19.8,5.2.6,7.4.9,12.2,5Z"/>
    </clipPath>
  </defs>
  <g>
    <path class="st8" d="M18.5,172.4c-3.1,0-5.7,2.5-5.7,5.7s2.5,5.7,5.7,5.7h399.7l3.3-11.3H18.5Z"/>
    <path class="st8" d="M974.5,172.4h-490l-3.3,11.3h493.3c3.1,0,5.7-2.5,5.7-5.7s-2.5-5.7-5.7-5.7h0Z"/>
  </g>
  <g>
    <path class="st7" d="M132.8,164.5c-8.2,0-15.3-1.6-21.2-4.9-6-3.3-10.5-7.9-13.7-14s-4.8-13.3-4.8-21.7,1.6-15.2,4.8-21.2,7.7-10.8,13.5-14.2c5.8-3.4,12.7-5.1,20.6-5.1s10.6.9,15.2,2.6c4.6,1.7,8.6,4.3,12,7.7,3.4,3.4,6,7.6,7.9,12.6s2.8,10.7,2.8,17.2v6.2h-68v-14.3h56.3l-11.5,3.4c0-3.7-.6-6.8-1.6-9.4-1.1-2.6-2.7-4.7-4.9-6.1-2.2-1.4-4.8-2.1-8-2.1s-5.9.7-8.1,2.2c-2.2,1.4-3.9,3.4-5,6-1.2,2.6-1.7,5.6-1.7,9v10.3c0,4,.7,7.4,2,10.1,1.3,2.7,3.2,4.7,5.6,6.1s5.2,2,8.4,2,4.2-.3,6-.9c1.8-.6,3.4-1.5,4.6-2.8,1.3-1.2,2.3-2.7,2.9-4.4l21.9,3.6c-1.3,4.5-3.6,8.4-6.8,11.8-3.2,3.4-7.3,5.9-12.2,7.8-4.9,1.8-10.6,2.7-16.9,2.7h0Z"/>
    <path class="st7" d="M217.3,164.5c-8.2,0-15.3-1.7-21.2-5.1-5.9-3.4-10.4-8.1-13.6-14.2s-4.8-13.1-4.8-21.2,1.6-15.2,4.8-21.3,7.7-10.8,13.6-14.2c5.9-3.4,13-5.1,21.2-5.1s9.6.7,13.8,2c4.2,1.3,7.8,3.2,11,5.6s5.7,5.3,7.6,8.8c1.9,3.4,3.2,7.3,3.8,11.6l-22.7,3.8c-.4-2.1-.9-3.9-1.7-5.5-.8-1.6-1.7-3-2.8-4.1-1.1-1.1-2.4-2-3.9-2.5s-3.1-.8-4.9-.8c-3.1,0-5.8.9-8,2.6-2.2,1.7-3.9,4.2-5,7.5s-1.7,7.1-1.7,11.7.6,8.4,1.7,11.7,2.8,5.8,5,7.6c2.2,1.8,4.9,2.6,8,2.6s3.5-.3,4.9-.9c1.4-.6,2.8-1.4,3.9-2.6s2.1-2.6,2.9-4.2c.8-1.7,1.3-3.6,1.6-5.7l22.7,3.7c-.6,4.4-1.9,8.4-3.8,11.9s-4.5,6.5-7.6,9c-3.1,2.5-6.8,4.4-11,5.7-4.2,1.3-8.8,2-13.8,2h0Z"/>
    <path class="st7" d="M300.3,164.5c-8.2,0-15.3-1.7-21.2-5.1-5.9-3.4-10.5-8.1-13.6-14.2-3.2-6.1-4.8-13.1-4.8-21.2s1.6-15.2,4.8-21.3,7.7-10.8,13.6-14.2c5.9-3.4,13-5.1,21.2-5.1s15.3,1.7,21.2,5.1,10.4,8.1,13.6,14.2c3.1,6.1,4.7,13.2,4.7,21.3s-1.6,15.1-4.7,21.2c-3.1,6.1-7.7,10.8-13.6,14.2-5.9,3.4-13,5.1-21.2,5.1ZM300.3,145.7c3.1,0,5.8-.9,8-2.8s3.8-4.4,4.9-7.7,1.6-7.1,1.6-11.5-.5-8.2-1.6-11.4c-1.1-3.3-2.7-5.8-4.9-7.6-2.2-1.8-4.8-2.7-8-2.7s-5.8.9-8,2.7c-2.2,1.8-3.8,4.3-4.9,7.6s-1.6,7.1-1.6,11.4.5,8.2,1.6,11.5,2.7,5.8,4.9,7.7,4.8,2.8,8,2.8Z"/>
    <path class="st7" d="M383.2,164.5c-6.7,0-12.6-.9-17.8-2.9-5.2-1.9-9.4-4.6-12.6-8.2-3.2-3.6-5.3-7.9-6.3-12.9l22.8-3.6c1,3.4,2.6,6,5,7.7,2.4,1.7,5.6,2.6,9.8,2.6s6.1-.6,8.1-1.8c2-1.2,3-2.8,3-4.8s-.8-3.3-2.4-4.4c-1.6-1.1-4-2-7.3-2.6l-13.7-2.7c-7.8-1.5-13.6-4.1-17.5-7.9s-5.8-8.7-5.8-14.8,1.4-9.7,4.3-13.4c2.8-3.7,6.9-6.6,12-8.6,5.2-2,11.3-3,18.3-3s12.3.9,17.1,2.6c4.9,1.8,8.8,4.3,11.8,7.5s4.9,7.1,5.8,11.7l-21.7,3.4c-.7-2.6-2.1-4.7-4.3-6.2s-4.9-2.2-8.3-2.2-5.5.6-7.5,1.8-3.1,2.8-3.1,4.8.6,3,1.9,4.2c1.3,1.2,3.6,2.1,7,2.8l15.1,2.8c7.8,1.5,13.6,4,17.4,7.5,3.8,3.5,5.7,8.1,5.7,13.8s-1.6,10.1-4.8,14.1-7.5,7.1-13.1,9.2-11.9,3.3-19.1,3.3h0Z"/>
    <path class="st7" d="M427.6,190.6l5.5-17.9,3.1.8c3,.8,5.5,1,7.8.6s3.9-1.1,5.1-2.5c1.2-1.3,1.7-3.1,1.6-5.2v-3.3c0,0-29.4-78.8-29.4-78.8h25.9l11.8,38.5c1.6,5.3,2.9,10.5,3.8,15.8.9,5.3,2,11,3.3,17.1h-5.1c1.3-6.1,2.5-11.8,3.8-17.2s2.7-10.6,4.4-15.8l12.6-38.5h25.6l-33,87c-1.6,4.2-3.7,8-6.3,11.2-2.6,3.3-5.9,5.8-9.9,7.7-4,1.9-9,2.8-14.9,2.8s-5.9-.2-8.7-.7-5.1-1-6.9-1.7h0Z"/>
    <path class="st7" d="M545.3,164.5c-6.7,0-12.7-.9-17.8-2.9-5.2-1.9-9.4-4.6-12.6-8.2-3.2-3.6-5.3-7.9-6.3-12.9l22.8-3.6c1,3.4,2.7,6,5,7.7,2.3,1.7,5.6,2.6,9.8,2.6s6.1-.6,8.1-1.8c2-1.2,3-2.8,3-4.8s-.8-3.3-2.4-4.4c-1.6-1.1-4-2-7.3-2.6l-13.7-2.7c-7.8-1.5-13.6-4.1-17.5-7.9s-5.8-8.7-5.8-14.8,1.4-9.7,4.3-13.4c2.8-3.7,6.8-6.6,12-8.6,5.2-2,11.3-3,18.3-3s12.3.9,17.1,2.6,8.8,4.3,11.8,7.5,4.9,7.1,5.8,11.7l-21.7,3.4c-.7-2.6-2.2-4.7-4.3-6.2s-4.9-2.2-8.3-2.2-5.5.6-7.5,1.8-3.1,2.8-3.1,4.8.6,3,1.9,4.2c1.3,1.2,3.6,2.1,7,2.8l15.1,2.8c7.8,1.5,13.6,4,17.4,7.5s5.7,8.1,5.7,13.8-1.6,10.1-4.8,14.1-7.5,7.1-13.1,9.2-11.9,3.3-19.1,3.3h0Z"/>
    <path class="st7" d="M636,84.3v18.2h-49.1v-18.2h49.1ZM597.3,65.6h24.6v73.3c0,2.1.5,3.6,1.5,4.6s2.6,1.5,4.8,1.5,2,0,3.5-.3c1.5-.2,2.6-.4,3.3-.6l3.2,17.9c-2.8.8-5.4,1.3-8,1.6s-5,.4-7.3.4c-8.3,0-14.7-2-19-5.9-4.3-3.9-6.5-9.6-6.5-17.1v-75.5h0Z"/>
    <path class="st7" d="M682.2,164.5c-8.2,0-15.3-1.6-21.2-4.9-6-3.3-10.5-7.9-13.7-14s-4.8-13.3-4.8-21.7,1.6-15.2,4.8-21.2,7.7-10.8,13.5-14.2,12.7-5.1,20.5-5.1,10.6.9,15.2,2.6c4.6,1.7,8.6,4.3,12,7.7,3.4,3.4,6,7.6,7.9,12.6s2.8,10.7,2.8,17.2v6.2h-68v-14.3h56.3l-11.5,3.4c0-3.7-.5-6.8-1.7-9.4-1.1-2.6-2.7-4.7-4.9-6.1s-4.8-2.1-8-2.1-5.9.7-8.1,2.2c-2.2,1.4-3.9,3.4-5,6-1.2,2.6-1.7,5.6-1.7,9v10.3c0,4,.7,7.4,2,10.1,1.3,2.7,3.2,4.7,5.6,6.1,2.4,1.3,5.2,2,8.4,2s4.2-.3,6-.9c1.8-.6,3.3-1.5,4.7-2.8,1.3-1.2,2.3-2.7,2.9-4.4l21.9,3.6c-1.3,4.5-3.6,8.4-6.8,11.8-3.2,3.4-7.3,5.9-12.2,7.8-4.9,1.8-10.5,2.7-16.9,2.7h0Z"/>
    <path class="st7" d="M743.6,164.5c-3.8,0-6.9-1.3-9.5-3.8-2.6-2.5-3.8-5.6-3.8-9.4s1.3-6.8,3.8-9.3c2.6-2.5,5.7-3.8,9.5-3.8s6.9,1.2,9.5,3.8,3.8,5.6,3.8,9.3-1.3,6.9-3.8,9.4-5.7,3.8-9.5,3.8Z"/>
    <path class="st7" d="M773.2,163v-78.7h22.6l1.4,20.4h-1.7c1.2-5.1,3-9.2,5.5-12.4,2.4-3.1,5.2-5.4,8.5-6.9,3.2-1.4,6.6-2.2,10.2-2.2,5.6,0,10.2,1.8,13.6,5.4s6.1,9.5,8,17.7h-2.7c1.3-5.5,3.3-9.9,6-13.4,2.7-3.4,5.9-5.9,9.6-7.5,3.7-1.6,7.5-2.3,11.4-2.3s9.3,1.1,13.1,3.2c3.8,2.1,6.7,5.2,8.9,9.2,2.2,4,3.2,8.7,3.2,14.3v53.1h-24.5v-47.5c0-4-1-7-3.1-9.1-2.1-2.1-4.8-3.1-8-3.1s-4.3.5-6,1.6c-1.7,1-3,2.5-3.9,4.3-.9,1.8-1.3,4.1-1.3,6.6v47.2h-23.6v-47.9c0-3.6-1-6.5-3-8.6-2-2.1-4.7-3.2-8-3.2s-4.2.5-6,1.6c-1.7,1-3,2.5-4,4.4s-1.4,4.2-1.4,7v46.7h-24.6,0Z"/>
    <path class="st7" d="M937.6,164.5c-6.7,0-12.7-.9-17.8-2.9-5.2-1.9-9.4-4.6-12.6-8.2-3.2-3.6-5.3-7.9-6.3-12.9l22.8-3.6c1,3.4,2.7,6,5,7.7,2.3,1.7,5.6,2.6,9.8,2.6s6.1-.6,8.1-1.8c2-1.2,3-2.8,3-4.8s-.8-3.3-2.4-4.4c-1.6-1.1-4-2-7.3-2.6l-13.7-2.7c-7.8-1.5-13.6-4.1-17.5-7.9s-5.8-8.7-5.8-14.8,1.4-9.7,4.3-13.4c2.8-3.7,6.8-6.6,12-8.6,5.2-2,11.3-3,18.3-3s12.3.9,17.1,2.6,8.8,4.3,11.8,7.5,4.9,7.1,5.8,11.7l-21.7,3.4c-.7-2.6-2.2-4.7-4.3-6.2s-4.9-2.2-8.3-2.2-5.5.6-7.5,1.8-3.1,2.8-3.1,4.8.6,3,1.9,4.2c1.3,1.2,3.6,2.1,7,2.8l15.1,2.8c7.8,1.5,13.6,4,17.4,7.5s5.7,8.1,5.7,13.8-1.6,10.1-4.8,14.1-7.5,7.1-13.1,9.2-11.9,3.3-19.1,3.3h0Z"/>
  </g>
  <g>
    <path class="st12" d="M34.4,3.1S2.4,22,1.3,27.5s21.7,56.6,27.6,58,52.4-24.2,54.2-26.6-5.9-35.5-9.7-37.5c-3.9-2-33.7-17.5-39-18.3h0Z"/>
    <g class="st11">
      <path class="st6" d="M73.4,21.4c-.1,8.6-10.8,24.6-15.9,29.6s-28.5,34.4-28.5,34.4l34.9,4.5,41-31.5-31.4-37.1"/>
    </g>
  </g>
  <g>
    <path class="st1" d="M21.1,84.3c-3.3.4-7.1,9.2-7.3,12.2s3.9,26.8,6.9,29.2,17.5,6.9,20.6,6.1c3.1-.8,28.8-20.9,26.6-26.6-2.1-5.4-10.5-10.9-16.2-13.3-4-1.7-23.9-8.6-30.6-7.7Z"/>
    <g class="st4">
      <g>
        <path class="st9" d="M26,118.5c7.4-2,19.5-2.6,28.8-4.4,9.3-1.8,26.6-14.6,31.3-19.4s7.3,2,7.3,2l1,29-17.4,8-57.3-1.5,6.3-13.8"/>
        <polygon class="st3" points="7.3 72.8 -5.8 84.3 16.8 137.5 25.9 118.6 7.3 72.8"/>
      </g>
    </g>
  </g>
  <g>
    <path class="st2" d="M51.3,136.6c8.9,7.6,6.2,12.3,3.4,17-2.8,4.7-14.1,20.5-22.5,17.2-6.6-2.6-12.7-13-12.6-19.5,0-4.2,11.6-20.6,19.5-19.8,5.2.6,7.4.9,12.2,5.1Z"/>
    <g class="st5">
      <path class="st10" d="M19.7,162.9s10.3,3.4,22.6-1.5c12.3-4.9,18-14.2,18-14.2l-2.8,15.2-2.7,20.5-31-1-4.1-19h0Z"/>
    </g>
  </g>
</svg>