<?xml version="1.0" encoding="UTF-8" standalone="no"?>
<!DOCTYPE svg PUBLIC "-//W3C//DTD SVG 1.1//EN"
 "http://www.w3.org/Graphics/SVG/1.1/DTD/svg11.dtd">
<!-- Generated by graphviz version 15.1.1 (20260805.0921)
 -->
<!-- Title: architecture Pages: 1 -->
<svg width="623pt" height="388pt"
 viewBox="0.00 0.00 623.00 388.00" xmlns="http://www.w3.org/2000/svg" xmlns:xlink="http://www.w3.org/1999/xlink">
<g id="graph0" class="graph" transform="scale(1 1) rotate(0) translate(5.76 381.76)">
<title>architecture</title>
<!-- packages&#45;&gt;advisories -->
<g id="edge2" class="edge">
<title>packages&#45;&gt;advisories</title>
<path fill="none" stroke="#4c4c61" stroke-width="1.15" d="M217.88,-259.3C193.84,-243.67 155.49,-221.74 125.42,-206.24"/>
<polygon fill="#4c4c61" stroke="#4c4c61" stroke-width="1.15" points="126.87,-204.23 119.52,-203.24 124.65,-208.6 126.87,-204.23"/>
</g>
<!-- packages&#45;&gt;repos -->
<g id="edge3" class="edge">
<title>packages&#45;&gt;repos</title>
<path fill="none" stroke="#4c4c61" stroke-width="1.15" d="M255.98,-259.48C281.23,-228.83 331.74,-167.49 360.13,-133.01"/>
<polygon fill="#4c4c61" stroke="#4c4c61" stroke-width="1.15" points="361.84,-134.8 364.4,-127.84 358.06,-131.68 361.84,-134.8"/>
</g>
<!-- packages&#45;&gt;archives -->
<g id="edge4" class="edge">
<title>packages&#45;&gt;archives</title>
<path fill="none" stroke="#4c4c61" stroke-width="1.15" d="M239.3,-259.3C235.81,-213.95 226.89,-97.97 222.82,-45.05"/>
<polygon fill="#4c4c61" stroke="#4c4c61" stroke-width="1.15" points="225.27,-45.06 222.29,-38.26 220.39,-45.43 225.27,-45.06"/>
</g>
<!-- advisories&#45;&gt;packages -->
<g id="edge1" class="edge">
<title>advisories&#45;&gt;packages</title>
<path fill="none" stroke="#4c4c61" stroke-width="1.15" d="M103.59,-206.7C128.02,-222.59 167.24,-244.98 197.51,-260.51"/>
<polygon fill="#4c4c61" stroke="#4c4c61" stroke-width="1.15" points="196.09,-262.54 203.44,-263.52 198.31,-258.17 196.09,-262.54"/>
</g>
<!-- repos&#45;&gt;commits -->
<g id="edge9" class="edge">
<title>repos&#45;&gt;commits</title>
<path fill="none" stroke="#4c4c61" stroke-width="1.15" d="M406.51,-89.38C420.71,-75.96 437.8,-57.8 450.03,-43.11"/>
<polygon fill="#4c4c61" stroke="#4c4c61" stroke-width="1.15" points="451.68,-44.97 454.18,-37.99 447.87,-41.88 451.68,-44.97"/>
</g>
<!-- repos&#45;&gt;issues -->
<g id="edge7" class="edge">
<title>repos&#45;&gt;issues</title>
<path fill="none" stroke="#4c4c61" stroke-width="1.15" d="M379.31,-89.55C375.78,-76.53 369.28,-58.92 362.81,-44.42"/>
<polygon fill="#4c4c61" stroke="#4c4c61" stroke-width="1.15" points="365.15,-43.63 359.98,-38.32 360.7,-45.7 365.15,-43.63"/>
</g>
<!-- repos&#45;&gt;timeline -->
<g id="edge11" class="edge">
<title>repos&#45;&gt;timeline</title>
<path fill="none" stroke="#4c4c61" stroke-width="1.15" d="M408.12,-95.67C442.83,-80.06 502.84,-53.05 542.17,-35.36"/>
<polygon fill="#4c4c61" stroke="#4c4c61" stroke-width="1.15" points="542.78,-37.77 548.15,-32.66 540.76,-33.3 542.78,-37.77"/>
</g>
<!-- repos&#45;&gt;archives -->
<g id="edge6" class="edge">
<title>repos&#45;&gt;archives</title>
<path fill="none" stroke="#4c4c61" stroke-width="1.15" d="M353.23,-92.53C327.72,-78.18 289.47,-56.66 260.61,-40.43"/>
<polygon fill="#4c4c61" stroke="#4c4c61" stroke-width="1.15" points="261.93,-38.36 254.63,-37.07 259.53,-42.63 261.93,-38.36"/>
</g>
<!-- repos&#45;&gt;dependency_parser -->
<g id="edge5" class="edge">
<title>repos&#45;&gt;dependency_parser</title>
<path fill="none" stroke="#4c4c61" stroke-width="1.15" d="M353.18,-100.25C304.08,-86.44 200.1,-57.2 130.3,-37.57"/>
<polygon fill="#4c4c61" stroke="#4c4c61" stroke-width="1.15" points="131.05,-35.23 123.64,-35.69 129.72,-39.95 131.05,-35.23"/>
</g>
<!-- commits&#45;&gt;repos -->
<g id="edge10" class="edge">
<title>commits&#45;&gt;repos</title>
<path fill="none" stroke="#4c4c61" stroke-width="1.15" d="M439.96,-36.62C425.76,-50.04 408.67,-68.2 396.44,-82.89"/>
<polygon fill="#4c4c61" stroke="#4c4c61" stroke-width="1.15" points="394.79,-81.03 392.29,-88.01 398.6,-84.12 394.79,-81.03"/>
</g>
<!-- issues&#45;&gt;repos -->
<g id="edge8" class="edge">
<title>issues&#45;&gt;repos</title>
<path fill="none" stroke="#4c4c61" stroke-width="1.15" d="M347.16,-36.45C350.69,-49.47 357.19,-67.08 363.66,-81.58"/>
<polygon fill="#4c4c61" stroke="#4c4c61" stroke-width="1.15" points="361.32,-82.37 366.49,-87.68 365.77,-80.3 361.32,-82.37"/>
</g>
<!-- sponsors&#45;&gt;repos -->
<g id="edge12" class="edge">
<title>sponsors&#45;&gt;repos</title>
<path fill="none" stroke="#4c4c61" stroke-width="1.15" d="M411.46,-169.45C406.24,-159.02 399.65,-145.83 393.91,-134.35"/>
<polygon fill="#4c4c61" stroke="#4c4c61" stroke-width="1.15" points="396.2,-133.45 390.88,-128.29 391.82,-135.64 396.2,-133.45"/>
</g>
<!-- resolver&#45;&gt;packages -->
<g id="edge13" class="edge">
<title>resolver&#45;&gt;packages</title>
<path fill="none" stroke="#4c4c61" stroke-width="1.15" d="M240.74,-339.45C240.74,-329.32 240.74,-316.59 240.74,-305.35"/>
<polygon fill="#4c4c61" stroke="#4c4c61" stroke-width="1.15" points="243.19,-305.47 240.74,-298.47 238.29,-305.47 243.19,-305.47"/>
</g>
<!-- packages -->
<g id="node1" class="node">
<title>packages</title>
<g id="a_node1"><a xlink:href="/docs/services/data-services/packages/" xlink:title="packages" target="_top">
<polygon fill="#dcdcff" stroke="#333333" stroke-width="1.5" points="275.97,-296 205.5,-296 205.5,-260 275.97,-260 275.97,-296"/>
<text xml:space="preserve" text-anchor="middle" x="240.74" y="-272.98" font-family="Inter" font-size="12.00">packages</text>
</a>
</g>
</g>
<!-- advisories -->
<g id="node2" class="node">
<title>advisories</title>
<g id="a_node2"><a xlink:href="/docs/services/data-services/advisories/" xlink:title="advisories" target="_top">
<polygon fill="#dcdcff" stroke="#333333" stroke-width="1.5" points="117.47,-206 44,-206 44,-170 117.47,-170 117.47,-206"/>
<text xml:space="preserve" text-anchor="middle" x="80.73" y="-182.97" font-family="Inter" font-size="12.00">advisories</text>
</a>
</g>
</g>
<!-- repos -->
<g id="node3" class="node">
<title>repos</title>
<g id="a_node3"><a xlink:href="/docs/services/data-services/repositories/" xlink:title="repos" target="_top">
<polygon fill="#dcdcff" stroke="#333333" stroke-width="1.5" points="407.73,-126 353.73,-126 353.73,-90 407.73,-90 407.73,-126"/>
<text xml:space="preserve" text-anchor="middle" x="380.73" y="-102.97" font-family="Inter" font-size="12.00">repos</text>
</a>
</g>
</g>
<!-- commits -->
<g id="node4" class="node">
<title>commits</title>
<g id="a_node4"><a xlink:href="/docs/services/indexes/commits/" xlink:title="commits" target="_top">
<polygon fill="#d9f9e3" stroke="#333333" stroke-width="1.5" points="497.22,-36 434.25,-36 434.25,0 497.22,0 497.22,-36"/>
<text xml:space="preserve" text-anchor="middle" x="465.73" y="-12.97" font-family="Inter" font-size="12.00">commits</text>
</a>
</g>
</g>
<!-- issues -->
<g id="node5" class="node">
<title>issues</title>
<g id="a_node5"><a xlink:href="/docs/services/indexes/issues/" xlink:title="issues" target="_top">
<polygon fill="#d9f9e3" stroke="#333333" stroke-width="1.5" points="372.74,-36 318.74,-36 318.74,0 372.74,0 372.74,-36"/>
<text xml:space="preserve" text-anchor="middle" x="345.74" y="-12.97" font-family="Inter" font-size="12.00">issues</text>
</a>
</g>
</g>
<!-- sponsors -->
<g id="node6" class="node">
<title>sponsors</title>
<g id="a_node6"><a xlink:href="/docs/services/indexes/sponsors/" xlink:title="sponsors" target="_top">
<polygon fill="#d9f9e3" stroke="#333333" stroke-width="1.5" points="454.47,-206 387,-206 387,-170 454.47,-170 454.47,-206"/>
<text xml:space="preserve" text-anchor="middle" x="420.73" y="-182.97" font-family="Inter" font-size="12.00">sponsors</text>
</a>
</g>
</g>
<!-- timeline -->
<g id="node7" class="node">
<title>timeline</title>
<g id="a_node7"><a xlink:href="/docs/services/indexes/timeline/" xlink:title="timeline" target="_top">
<polygon fill="#d9f9e3" stroke="#333333" stroke-width="1.5" points="611.1,-36 550.38,-36 550.38,0 611.1,0 611.1,-36"/>
<text xml:space="preserve" text-anchor="middle" x="580.74" y="-12.97" font-family="Inter" font-size="12.00">timeline</text>
</a>
</g>
</g>
<!-- archives -->
<g id="node8" class="node">
<title>archives</title>
<g id="a_node8"><a xlink:href="/docs/services/tools/archives/" xlink:title="archives" target="_top">
<polygon fill="#ffe0df" stroke="#333333" stroke-width="1.5" points="252.6,-36 188.88,-36 188.88,0 252.6,0 252.6,-36"/>
<text xml:space="preserve" text-anchor="middle" x="220.74" y="-12.97" font-family="Inter" font-size="12.00">archives</text>
</a>
</g>
</g>
<!-- dependency_parser -->
<g id="node9" class="node">
<title>dependency_parser</title>
<g id="a_node9"><a xlink:href="/docs/services/tools/dependency-parser/" xlink:title="dependency parser" target="_top">
<polygon fill="#ffe0df" stroke="#333333" stroke-width="1.5" points="121.47,-36 0,-36 0,0 121.47,0 121.47,-36"/>
<text xml:space="preserve" text-anchor="middle" x="60.73" y="-12.97" font-family="Inter" font-size="12.00">dependency parser</text>
</a>
</g>
</g>
<!-- resolver -->
<g id="node10" class="node">
<title>resolver</title>
<g id="a_node10"><a xlink:href="/docs/services/tools/resolver/" xlink:title="resolver" target="_top">
<polygon fill="#ffe0df" stroke="#333333" stroke-width="1.5" points="271.47,-376 210,-376 210,-340 271.47,-340 271.47,-376"/>
<text xml:space="preserve" text-anchor="middle" x="240.74" y="-352.98" font-family="Inter" font-size="12.00">resolver</text>
</a>
</g>
</g>
</g>
</svg>
